Coordinates
version=1
nRows=11
nColumns=40
inDegrees=yes

Units are S.I. units (second, meters, Newtons, ...)
Angles are in degrees.

endheader
time	pelvis_tilt	pelvis_list	pelvis_rotation	pelvis_tx	pelvis_ty	pelvis_tz	hip_flexion_r	hip_adduction_r	hip_rotation_r	knee_angle_r	knee_angle_r_beta	ankle_angle_r	subtalar_angle_r	mtp_angle_r	hip_flexion_l	hip_adduction_l	hip_rotation_l	knee_angle_l	knee_angle_l_beta	ankle_angle_l	subtalar_angle_l	mtp_angle_l	lumbar_extension	lumbar_bending	lumbar_rotation	arm_flex_r	arm_add_r	arm_rot_r	elbow_flex_r	pro_sup_r	wrist_flex_r	wrist_dev_r	arm_flex_l	arm_add_l	arm_rot_l	elbow_flex_l	pro_sup_l	wrist_flex_l	wrist_dev_l
     30.80000000	     -2.84509450	     -5.14581311	     -2.36900800	      0.85640359	      0.91186989	      0.38922293	     24.55097560	     -8.00170711	     -0.03182587	     60.32364446	     60.32364446	      1.37619053	    -14.85094961	     -2.36310430	     19.81732811	     -2.32844992	     -2.24491866	     35.43842629	     35.43842629	     20.77172165	    -17.38145934	      7.63989568	    -11.30155896	      6.83373063	      3.23071962	     30.41445888	    -11.63995233	     -8.93139864	     36.67535309	     45.29931633	      0.00000000	      0.00000000	     16.51601941	    -13.28518850	     17.09995982	     38.69654537	     45.18951193	      0.00000000	      0.00000000
     30.82335714	     -2.92488385	     -5.21703936	     -2.74852242	      0.85462656	      0.91224870	      0.38635703	     25.51240244	     -8.10414652	     -1.06030382	     60.43325890	     60.43325890	      1.98146503	    -15.98649170	     -2.14542953	     19.49806210	     -2.35911716	     -2.81590167	     35.17399813	     35.17399813	     21.03316125	    -16.98389216	      7.54739165	    -11.10785772	      6.96686419	      2.92755462	     26.24745570	    -11.65388234	     -8.79613451	     34.84284172	     45.34681100	      0.00000000	      0.00000000	     18.28960996	    -13.89072403	     16.46562736	     40.01984299	     45.29610658	      0.00000000	      0.00000000
     30.84671429	     -2.98619096	     -5.29143781	     -3.15572116	      0.85283325	      0.91287726	      0.38358455	     26.36785322	     -8.15988398	     -2.07791421	     60.18941523	     60.18941523	      2.84072459	    -16.78802892	     -1.57240940	     19.06454893	     -2.40935208	     -3.46048420	     34.76424405	     34.76424405	     21.20015216	    -16.53000106	      7.34925824	    -11.01367468	      7.07335282	      2.75810220	     21.84064969	    -11.81536699	     -8.54647709	     33.02143460	     45.38571182	      0.00000000	      0.00000000	     20.05695438	    -14.49068789	     15.46294775	     41.84016829	     45.44675651	      0.00000000	      0.00000000
     30.87007143	     -3.08415601	     -5.38185049	     -3.55322549	      0.85105722	      0.91369301	      0.38097120	     27.08260987	     -8.16169852	     -3.09831591	     59.40814279	     59.40814279	      3.64298166	    -17.28523659	     -1.46708347	     18.63344892	     -2.42164947	     -3.92722677	     34.28678717	     34.28678717	     21.29602839	    -16.33233254	      7.35830580	    -10.87024376	      7.26930963	      1.68185645	     17.93354311	    -11.42402810	     -8.46559106	     31.57427558	     45.41138209	      0.00000000	      0.00000000	     21.68185583	    -15.79563917	     14.85114700	     42.52663785	     45.53268695	      0.00000000	      0.00000000
     30.89342857	     -3.18320637	     -5.42045594	     -4.11688807	      0.84942958	      0.91483183	      0.37884331	     27.77513643	     -7.99360882	     -3.74870719	     58.33199271	     58.33199271	      5.46091791	    -17.01934478	      1.70211170	     17.97391988	     -2.56011985	     -4.96186172	     33.43231878	     33.43231878	     21.03019371	    -15.57653999	      6.02454074	    -10.87038601	      7.29133535	      1.89521626	     13.29051837	    -12.28183585	     -5.58085701	     30.07738061	     45.36662516	      0.00000000	      0.00000000	     22.58936533	    -15.51718357	      9.47197055	     46.71775891	     46.18987163	      0.00000000	      0.00000000
     30.91678571	     -3.30260364	     -5.42829218	     -4.66661209	      0.84783902	      0.91617914	      0.37710570	     28.15461579	     -7.81625089	     -4.38283073	     56.40021629	     56.40021629	      6.20091107	    -16.84479835	      1.60776942	     17.33240415	     -2.59969728	     -5.78104156	     32.58124402	     32.58124402	     21.09318027	    -14.98138740	      5.97664662	    -10.76992042	      7.29912993	      1.92716370	      9.09967787	    -12.50412159	     -5.38602014	     28.51165938	     45.39809242	      0.00000000	      0.00000000	     24.37227293	    -16.16418781	      8.62643609	     48.38059934	     46.30695750	      0.00000000	      0.00000000
     30.94014286	     -3.46353064	     -5.42744379	     -5.23454866	      0.84632205	      0.91773098	      0.37581877	     28.33465124	     -7.54393921	     -4.89364316	     53.84501853	     53.84501853	      6.81744387	    -16.28908879	      1.43651470	     16.65099089	     -2.64415006	     -6.61566120	     31.57130596	     31.57130596	     21.06984138	    -14.35115911	      5.90935420	    -10.60949795	      7.30000636	      1.84129022	      5.12782312	    -12.68446268	     -5.22490701	     27.30805577	     45.41494868	      0.00000000	      0.00000000	     25.93121811	    -16.82015455	      7.59785592	     50.04537738	     46.43520271	      0.00000000	      0.00000000
     30.96350000	     -3.67516470	     -5.39610521	     -5.83860344	      0.84484085	      0.91915029	      0.37507924	     28.33498541	     -7.21427897	     -5.28561354	     50.70341568	     50.70341568	      6.75052561	    -15.67451498	     -0.55313954	     15.99006217	     -2.69597323	     -7.53020906	     30.47585726	     30.47585726	     20.70351832	    -13.79178872	      4.95049511	    -10.47025745	      7.24013458	      1.49917229	      0.75280896	    -13.06071731	     -3.99801933	     28.48308805	     45.31516540	      0.00000000	      0.00000000	     26.67435320	    -17.24691358	      3.90887863	     53.15266028	     46.80520537	      0.00000000	      0.00000000
     30.98685714	     -3.87698257	     -5.34968343	     -6.45031817	      0.84339203	      0.92074465	      0.37481782	     28.15481382	     -6.82181829	     -5.55657836	     47.22247772	     47.22247772	      7.18153091	    -14.28226552	     -0.62450294	     15.27651642	     -2.70631640	     -8.34865350	     29.31540375	     29.31540375	     20.62967497	    -13.21394524	      5.00019555	    -10.21891621	      7.14884102	      1.32656322	     -2.61175190	    -13.22087603	     -3.81284464	     27.48863794	     45.32587528	      0.00000000	      0.00000000	     28.06470860	    -17.99446422	      3.12169145	     54.45974752	     46.89856062	      0.00000000	      0.00000000
     31.01021429	     -4.19314996	     -5.24687037	     -7.05563701	      0.84185310	      0.92198895	      0.37501983	     27.99066797	     -6.41727890	     -5.70100200	     43.53078491	     43.53078491	      7.44305928	    -12.64793901	     -0.62657166	     14.74269683	     -2.68143987	     -9.12828566	     28.22476715	     28.22476715	     20.53161261	    -12.68867541	      5.00227254	     -9.83271783	      6.99898259	      1.09970177	     -5.76464251	    -13.29963846	     -3.72244566	     26.82322513	     45.32683238	      0.00000000	      0.00000000	     29.33009083	    -18.85144290	      2.24222959	     55.75468194	     46.99708924	      0.00000000	      0.00000000
     31.03357143	     -4.49819954	     -5.15265218	     -7.67140957	      0.84031546	      0.92312648	      0.37572416	     27.69117268	     -5.97446545	     -5.82587048	     39.69834548	     39.69834548	      7.57517164	    -10.64895941	     -0.57208472	     14.15997973	     -2.68373085	     -9.94028545	     27.06643060	     27.06643060	     20.42549515	    -12.15867843	      4.97264969	     -9.53802803	      6.81376812	      0.99595155	     -8.71685289	    -13.33003526	     -3.66848102	     26.40634017	     45.31966340	      0.00000000	      0.00000000	     30.51868962	    -19.57112091	      1.29791980	     57.17773902	     47.10084406	      0.00000000	      0.00000000
